<mxfile host="app.diagrams.net" modified="2024-04-13T10:03:34.993Z" agent="Mozilla/5.0 (X11; Ubuntu; Linux x86_64; rv:124.0) Gecko/20100101 Firefox/124.0" version="24.2.3" etag="5SZS7fj4hPu9mX3tgs9t" type="github">
  <diagram name="Page-1" id="gUkKl2i8aYJiaWLYuFTd">
    <mxGraphModel>
      <root>
        <mxCell id="0" />
        <mxCell id="1" parent="0" />
      </root>
    </mxGraphModel>
  </diagram>
</mxfile>
